# xmcd
#
# Track frame offsets:
#	150
#	16333
#	32501
#	46604
#	62746
#	79472
#	96491
#	109798
#	120305
#	132906
#	144550
#	156032
#
# Disc length: 2277 seconds
#
# Revision: 0
# Processed by: cddbd v1.5.2PL0 Copyright (c) Steve Scherf et al.
# Submitted via: EasyCDDAExtractor 12.0.0.1
#
DISCID=9708e30c
DTITLE=ΣΤΡΑΤΟΣ ΔΙΟΝΥΣΙΟΥ - Ο ΛΑΟΣ ΘΕΛΕΙ ΤΡΑΓΟΥΔΙ  - ΘΕΜΑ
DYEAR=2009
DGENRE=GREEK
TTITLE0=ΑΚΟΥ ΒΡΕ ΦΙΛΕ
TTITLE1=ΚΑΛΥΤΕΡΑ ΜΑΖΙ ΣΟΥ ΚΑΙ ΤΡΕΛΟΣ
TTITLE2=ΠΟΙΟΣ ΣΟΥ ΕΙΠΕ ΓΙΑ ΤΟΥΣ ΜΑΓΚΕΣ
TTITLE3=Ο ΛΑΟΣ ΤΡΑΓΟΥΔΙ ΘΕΛΕΙ
TTITLE4=ΤΑ ΠΗΡΕΣ ΟΛΑ
TTITLE5=Ο  ΣΑΛΟΝΙΚΙΟΣ 
TTITLE6=ΤΟ ΜΠΟΥΖΟΥΚΙ ΤΟΥ ΝΙΚΟΛΑ
TTITLE7=ΤΟΥ ΚΟΣΜΟΥ ΤΟ ΠΕΡΙΓΕΛΟ
TTITLE8=Ο ΤΑΞΙΤΖΗΣ
TTITLE9=ΕΧΩ ΜΙΑ ΚΑΡΔΙΑ ΜΠΟΕΜΙΣΣΑ
TTITLE10=ΑΝ ΕΙΣΑΙ ΦΙΛΟΣ ΜΕ ΚΑΡΔΙΑ
TTITLE11=Ο ΠΑΛΙΑΤΖΗΣ
EXTD=
EXTT0=
EXTT1=
EXTT2=
EXTT3=
EXTT4=
EXTT5=
EXTT6=
EXTT7=
EXTT8=
EXTT9=
EXTT10=
EXTT11=
PLAYORDER=
